<svg xmlns="http://www.w3.org/2000/svg" viewBox="0 0 24 24" width="256" height="256"><path fill="#7B1FA2" d="M21.58 16.09l-1.09-7.66A3.996 3.996 0 0 0 16.53 5H7.47C5.79 5 4.4 6.22 4.2 7.88l-1.09 7.66C2.82 17.78 4.54 20 6.79 20c1.07 0 2.07-.53 2.67-1.42l1.27-1.86c.17-.25.46-.39.77-.39h.96c.31 0 .6.15.77.39l1.27 1.86c.6.89 1.6 1.42 2.67 1.42 2.25 0 3.97-2.22 3.41-3.91zM10 10H9v1c0 .55-.45 1-1 1s-1-.45-1-1v-1H6c-.55 0-1-.45-1-1s.45-1 1-1h1V7c0-.55.45-1 1-1s1 .45 1 1v1h1c.55 0 1 .45 1 1s-.45 1-1 1zm4.5 2c-.83 0-1.5-.67-1.5-1.5s.67-1.5 1.5-1.5 1.5.67 1.5 1.5-.67 1.5-1.5 1.5zm3-3c-.83 0-1.5-.67-1.5-1.5S16.67 6 17.5 6s1.5.67 1.5 1.5S18.33 9 17.5 9z"/></svg>
